<?xml version="1.0" encoding="UTF-8" standalone="no"?>
<svg
  version="1.1"
  id="svg2"
  xml:space="preserve"
  width="666.66669"
  height="666.66669"
  viewBox="0 0 666.66669 666.66669"
  sodipodi:docname="snap_g_icon_bg.svg"
  inkscape:version="1.1.2 (0a00cf5339, 2022-02-04)"
  xmlns:inkscape="http://www.inkscape.org/namespaces/inkscape"
  xmlns:sodipodi="http://sodipodi.sourceforge.net/DTD/sodipodi-0.dtd"
  xmlns="http://www.w3.org/2000/svg"
  xmlns:svg="http://www.w3.org/2000/svg"><defs
     id="defs6"><clipPath
       clipPathUnits="userSpaceOnUse"
       id="clipPath16"><path
         d="M 0,500 H 500 V 0 H 0 Z"
         id="path14" /></clipPath></defs><sodipodi:namedview
     id="namedview4"
     pagecolor="#ffffff"
     bordercolor="#666666"
     borderopacity="1.0"
     inkscape:pageshadow="2"
     inkscape:pageopacity="0.0"
     inkscape:pagecheckerboard="0"
     showgrid="false"
     inkscape:zoom="0.89099997"
     inkscape:cx="209.87655"
     inkscape:cy="342.31202"
     inkscape:window-width="2880"
     inkscape:window-height="1751"
     inkscape:window-x="0"
     inkscape:window-y="1105"
     inkscape:window-maximized="1"
     inkscape:current-layer="layer1" /><g
     inkscape:groupmode="layer"
     id="layer1"
     inkscape:label="bg"><rect
       style="fill:#ffffff"
       id="rect73"
       width="904.9389"
       height="804.59766"
       x="-113.74213"
       y="-53.953163" /></g><g
     id="g8"
     inkscape:groupmode="layer"
     inkscape:label="SnapperGee Icon2"
     transform="matrix(1.3333333,0,0,-1.3333333,0,666.66667)"
     sodipodi:insensitive="true"><g
       id="g10"><g
         id="g12"
         clip-path="url(#clipPath16)"><g
           id="g18"
           transform="translate(76.4443,189.0947)"><path
             d="m 0,0 c -0.332,-0.752 -0.608,-0.867 -1.111,-0.817 -0.351,0.157 -1.518,1.34 -2.362,3.108 -2.673,5.633 0.3,14.578 13.621,10.227 6.265,-2.047 8.161,-4.373 15.844,-2.457 C 51.764,16.486 69.117,51.244 43.856,62.47 11.408,76.894 4.447,23.408 -24.142,20.833 c -7.176,-0.655 -18.347,3.237 -25.698,12.075 -15.888,19.106 -8.871,50.362 6.832,69.476 3.529,4.294 6.238,7.581 8.124,9.862 -2.433,3.598 -7.207,9.047 -5.07,13.856 0.829,1.863 2.829,2.485 3.89,2.013 0.862,-0.888 0.597,-1.76 0.868,-3.941 0.632,-10.836 18.692,-21.904 28.856,-26.859 0.418,-0.508 -0.08,-1.865 -0.347,-2.465 -1.615,-3.635 -0.155,0.147 -11.702,-0.226 -22.902,-0.748 -37.496,-24.686 -32.926,-39.354 3.006,-9.614 12.245,-13.922 22.692,-9.992 17.637,6.636 24.875,36.087 50.255,41.29 C 46.888,91.73 73.576,53.136 59.432,21.303 52.907,6.627 41.022,-8.617 34.622,-13.89 30.295,-8.078 26.034,-2.575 20.393,1.884 9.523,10.455 -4.227,9.838 0.973,0.502 Z"
             style="fill:#000000;fill-opacity:1;fill-rule:nonzero;stroke:none"
             id="path20" /></g><g
           id="g22"
           transform="translate(155.6318,262.6162)"><path
             d="M 0,0 C 1.913,0.439 3.344,2.104 4.3,3.818 4.586,4.126 6.249,3.372 6.271,2.67 6.156,0.719 4.34,-7.255 -0.343,-16.584 c -3.404,-6.768 -7.441,-9.32 -8.766,-8.068 -0.811,0.761 -0.493,0.664 -0.901,1.787 -2.071,4.436 -29.585,34.868 -40.924,40.974 -3.122,1.672 -6.865,2.97 -10.281,1.925 -2.264,-0.693 -2.959,-1.646 -4.321,-3.095 -1.25,-1.326 -1.08,-2.27 -2.637,-0.806 -1.181,1.114 4.989,26.013 9.118,30.399 5.246,5.575 9.317,-3.125 17.63,-10.956 -0.08,13.845 0.501,30.224 10.961,41.342 9.452,10.044 21.609,11.836 33.989,0.186 14.778,-13.911 29.794,-40.7 40.333,-29.5 2.905,3.089 5.822,11.385 5.77,13.119 -0.024,0.709 2.805,-0.687 2.835,-1.729 C 52.16,57.469 43,19.44 33.495,20.372 28.51,20.854 29.886,23.025 15.753,38.946 7.65,48.064 -3.408,59.281 -14.732,60.823 -30.597,62.971 -41.113,46.608 -32.969,29.965 -28.572,20.974 -6.942,-1.621 0,0"
             style="fill:#000000;fill-opacity:1;fill-rule:nonzero;stroke:none"
             id="path24" /></g><g
           id="g26"
           transform="translate(230.1006,354.9727)"><path
             d="m 0,0 c -1.316,3.568 -4.233,11.234 -5.498,13.878 -6.116,-3.859 -9.198,-6.073 -11.631,-7.914 -10.85,-8.217 -17.179,-14.01 -15.695,-21.156 2.014,-9.711 10.772,-13.071 20.626,-7.246 5.308,3.13 11.548,8.186 14.44,13.734 C 3.075,-7.118 2.168,-5.878 0,0 M 45.153,-12.798 C 40.847,-16.673 34.697,-21.927 30.316,-25.322 18.288,-34.649 13.979,-37.12 4.753,-12.812 -26.383,-52 -49.463,-44.433 -52.992,-27.411 c -2.604,12.54 10.027,17.974 38.443,40.723 3.046,2.435 5.244,4.319 6.6,5.648 -3.298,7.893 -7.351,16.183 -14.768,18.152 -11.734,3.099 -27.234,-18.402 -27.011,-23.761 0.257,-3.211 -7.772,-2.104 -8.772,2.72 -0.187,0.892 -0.328,1.631 -0.082,2.078 6.805,12.394 50.352,44.336 63.113,28.198 7.254,-9.196 14.082,-63.268 30.746,-59.812 2.993,0.62 6.624,3.01 9.401,5.231"
             style="fill:#000000;fill-opacity:1;fill-rule:nonzero;stroke:none"
             id="path28" /></g><g
           id="g30"
           transform="translate(284.4775,374.3633)"><path
             d="M 0,0 C 5.428,-5.765 20.252,-11.631 30.631,-8.433 47.68,-3.18 55.324,34.277 35.883,46.757 26.817,52.564 16.37,49.642 8.164,42.858 3.25,38.797 1.332,34.612 -1.271,12.823 -2.377,3.613 -2.961,3.135 0,0 m -5.145,-15.958 c -0.632,-4.004 -2.765,-20.42 -2.978,-22.482 -0.629,-6.116 -1.369,-14.12 4.34,-14.683 1.951,-0.192 5.941,-0.126 8.783,0.935 0.588,0.474 0.984,-1.799 0.908,-2.547 -0.061,-0.668 -30.59,-5.831 -31.268,-5.924 -2.57,-0.346 -3.532,-0.487 -5.261,0.027 -0.983,0.299 -0.926,2.252 0.011,2.54 0.401,0.124 0.728,0.338 0.985,0.64 1.476,1.422 18.428,90.165 12.26,104.717 -1.322,3.106 -3.018,4.802 -7.647,5.261 -2.894,0.282 -3.886,-0.411 -3.706,1.349 0.152,1.477 -0.036,1.2 4.22,2.859 C 6.719,68.87 7.294,67.84 5.302,52.399 3.684,39.987 2.384,46.708 19.851,55.795 23.203,57.538 26.694,58.97 30.316,60.087 49.344,65.95 69.246,51.2 66.978,29.021 65.213,11.875 53.174,-2.746 39.307,-9.372 23.836,-16.763 12.508,-20.933 -5.145,-15.958"
             style="fill:#000000;fill-opacity:1;fill-rule:nonzero;stroke:none"
             id="path32" /></g><g
           id="g34"
           transform="translate(354.71,366.1182)"><path
             d="m 0,0 c 0.542,-1.81 1.498,-3.742 2.868,-5.8 26.08,-39.293 64.488,8.72 50.415,32.141 -7.929,13.18 -26.625,10.3 -32.781,5.79 C 15.935,28.962 7.702,16.672 4.648,12.051 -0.507,4.268 -1.242,4.101 0,0 M -11.824,-12.074 C -33,-41.661 -32.916,-43.94 -23.711,-47.761 c 4.683,-1.931 5.195,-0.427 4.906,-2.142 -0.119,-0.698 -0.323,-1.277 -0.616,-1.738 -0.059,-0.09 -0.88,0.058 -2.458,0.45 -32.692,8.137 -34.301,9.558 -32.869,11.802 0.713,1.118 1.088,0.238 2.238,0.743 2.014,0.65 57.235,72.78 58.28,88.566 0.146,2.279 -0.233,3.989 -1.141,5.124 -3.659,4.56 -7.477,3.5 -6.05,5.731 0.294,0.46 0.509,0.746 0.642,0.856 0.765,0.603 29.541,-2.455 32.201,-4.087 4.713,-2.89 -0.717,-9.646 -7.147,-18.883 68.211,18.044 69.022,-53.491 16.389,-63.135 -3.703,-0.678 -6.918,-1.012 -9.656,-0.997 -17.863,0.096 -29.543,1.557 -42.832,13.397"
             style="fill:#000000;fill-opacity:1;fill-rule:nonzero;stroke:none"
             id="path36" /></g><g
           id="g38"
           transform="translate(410.6006,329.6768)"><path
             d="m 0,0 c 6.092,-10.753 13.218,-19.925 15.755,-22.212 4.236,-4.11 15.181,-1.747 17.778,6.978 C 36.556,-5.016 24.457,4.344 0,0 m -15.236,-63.838 c -18.418,11.722 -31.838,29.837 -28.885,51.662 3.797,28.128 34.252,33.369 52.43,29.455 17.828,-3.821 32.308,-21.063 35.23,-37.51 3.569,-20.118 -7.423,-23.853 -14.601,-20.48 1.624,-3.212 9.935,-14.809 10.963,-15.769 0.517,-0.362 0.578,-1.114 -0.128,-1.238 -5.58,-0.993 -7.723,3.083 -11.984,8.814 -11.037,14.843 -27.67,41.876 -32.67,48.038 -25.865,-4.592 -29.251,-38.739 -10.5,-58.742 1.504,-1.599 2.135,-1.923 1.288,-3.332 -0.316,-0.517 -0.696,-0.818 -1.143,-0.898"
             style="fill:#000000;fill-opacity:1;fill-rule:nonzero;stroke:none"
             id="path40" /></g><g
           id="g42"
           transform="translate(449.8467,196.9893)"><path
             d="m 0,0 c -3.005,3.945 -4.701,5.495 -7.955,10.109 -11.932,16.916 2.422,18.44 2.666,25.491 0.576,17.017 -43.44,20.463 -52.553,16.846 -4.084,-1.61 -3.994,-6.245 -3.01,-10.506 0.211,-0.723 -1.368,-0.979 -2.086,-0.955 -0.471,0.015 -1.163,0.973 -1.156,1.237 -5.361,14.519 -11.295,23.829 -7.858,30.467 0.833,1.602 1.684,2.341 3.294,1.256 2.461,-1.656 57.72,-10.515 66.345,1.332 2.251,3.092 2.27,8.101 1.954,9.601 0.048,1.427 1.936,1.284 2.563,-0.087 C 6.188,78.02 10.24,69.949 13.246,62.343 14.614,58.869 15.813,55.375 13.176,52.764 10.01,49.635 3.219,49.341 -1.223,49.49 -17.627,50.053 -9.869,53.086 6.771,35.53 24.698,16.598 -5.135,17.002 2.098,1.299 2.066,0.387 1.424,-0.048 0.171,-0.006 Z"
             style="fill:#000000;fill-opacity:1;fill-rule:nonzero;stroke:none"
             id="path44" /></g><g
           id="g46"
           transform="translate(369.1328,224.6182)"><path
             d="m 0,0 c -15.41,-69.862 -40.396,-136.431 -50.587,-147.143 -5.528,-5.81 -20.232,-9.398 -44.115,-10.767 12.161,14.454 25.043,37.306 38.644,68.555 -18.942,-29.823 -57.517,-40.346 -82.645,-40.346 -93.118,0 -130.822,107.909 -40.064,181.071 40.973,33.029 101.209,45.059 128.424,40.069 22.682,-4.159 52.279,-31.66 52.163,-50.69 -5.25,-4.875 -22.793,-1.076 -28.193,-6.906 -7.74,16.191 -25.661,34.973 -49.653,34.993 -32.176,-0.02 -56.666,-7.45 -80.317,-30.096 -23.648,-22.645 -35.486,-49.399 -35.508,-80.258 0.088,-87.75 127.979,-83.697 148.229,7.534 l 1.329,6.298 c -34.169,0 -61.535,-4.15 -82.097,-12.451 4.202,12.5 9.231,20.385 15.092,23.658 5.86,3.271 19.35,5.786 40.468,7.543 C -51.809,-7.519 -30.557,-7.41 0,0"
             style="fill:#000000;fill-opacity:1;fill-rule:nonzero;stroke:none"
             id="path48" /></g></g></g></g></svg>
