<svg xmlns="http://www.w3.org/2000/svg" xml:space="preserve" viewBox="0 0 666.66669 666.66669"><defs><clipPath id="a" clipPathUnits="userSpaceOnUse"><path d="M0 500h500V0H0Z"/></clipPath></defs><path fill="#fff" d="M-113.74213-53.953163h904.9389v804.59766h-904.9389z"/><g clip-path="url(#a)" transform="matrix(1.3333333 0 0 -1.3333333 0 666.66667)"><path d="M76.4443 189.0947c-.332-.752-.608-.867-1.111-.817-.351.157-1.518 1.34-2.362 3.108-2.673 5.633.3 14.578 13.621 10.227 6.265-2.047 8.161-4.373 15.844-2.457 25.772 6.425 43.125 41.183 17.864 52.409-32.448 14.424-39.409-39.062-67.998-41.637-7.176-.655-18.347 3.237-25.698 12.075-15.888 19.106-8.871 50.362 6.832 69.476 3.529 4.294 6.238 7.581 8.124 9.862-2.433 3.598-7.207 9.047-5.07 13.856.829 1.863 2.829 2.485 3.89 2.013.862-.888.597-1.76.868-3.941.632-10.836 18.692-21.904 28.856-26.859.418-.508-.08-1.865-.347-2.465-1.615-3.635-.155.147-11.702-.226-22.902-.748-37.496-24.686-32.926-39.354 3.006-9.614 12.245-13.922 22.692-9.992 17.637 6.636 24.875 36.087 50.255 41.29 25.256 5.162 51.944-33.432 37.8-65.265-6.525-14.676-18.41-29.92-24.81-35.193-4.327 5.812-8.588 11.315-14.229 15.774-10.87 8.571-24.62 7.954-19.42-1.382Z"/><path d="M155.6318 262.6162c1.913.439 3.344 2.104 4.3 3.818.286.308 1.949-.446 1.971-1.148-.115-1.951-1.931-9.925-6.614-19.254-3.404-6.768-7.441-9.32-8.766-8.068-.811.761-.493.664-.901 1.787-2.071 4.436-29.585 34.868-40.924 40.974-3.122 1.672-6.865 2.97-10.281 1.925-2.264-.693-2.959-1.646-4.321-3.095-1.25-1.326-1.08-2.27-2.637-.806-1.181 1.114 4.989 26.013 9.118 30.399 5.246 5.575 9.317-3.125 17.63-10.956-.08 13.845.501 30.224 10.961 41.342 9.452 10.044 21.609 11.836 33.989.186 14.778-13.911 29.794-40.7 40.333-29.5 2.905 3.089 5.822 11.385 5.77 13.119-.024.709 2.805-.687 2.835-1.729-.303-1.525-9.463-39.554-18.968-38.622-4.985.482-3.609 2.653-17.742 18.574-8.103 9.118-19.161 20.335-30.485 21.877-15.865 2.148-26.381-14.215-18.237-30.858 4.397-8.991 26.027-31.586 32.969-29.965"/><path d="M230.1006 354.9727c-1.316 3.568-4.233 11.234-5.498 13.878-6.116-3.859-9.198-6.073-11.631-7.914-10.85-8.217-17.179-14.01-15.695-21.156 2.014-9.711 10.772-13.071 20.626-7.246 5.308 3.13 11.548 8.186 14.44 13.734.833 1.586-.074 2.826-2.242 8.704m45.153-12.798c-4.306-3.875-10.456-9.129-14.837-12.524-12.028-9.327-16.337-11.798-25.563 12.51-31.136-39.188-54.216-31.621-57.745-14.599-2.604 12.54 10.027 17.974 38.443 40.723 3.046 2.435 5.244 4.319 6.6 5.648-3.298 7.893-7.351 16.183-14.768 18.152-11.734 3.099-27.234-18.402-27.011-23.761.257-3.211-7.772-2.104-8.772 2.72-.187.892-.328 1.631-.082 2.078 6.805 12.394 50.352 44.336 63.113 28.198 7.254-9.196 14.082-63.268 30.746-59.812 2.993.62 6.624 3.01 9.401 5.231"/><path d="M284.4775 374.3633c5.428-5.765 20.252-11.631 30.631-8.433 17.049 5.253 24.693 42.71 5.252 55.19-9.066 5.807-19.513 2.885-27.719-3.899-4.914-4.061-6.832-8.246-9.435-30.035-1.106-9.21-1.69-9.688 1.271-12.823m-5.145-15.958c-.632-4.004-2.765-20.42-2.978-22.482-.629-6.116-1.369-14.12 4.34-14.683 1.951-.192 5.941-.126 8.783.935.588.474.984-1.799.908-2.547-.061-.668-30.59-5.831-31.268-5.924-2.57-.346-3.532-.487-5.261.027-.983.299-.926 2.252.011 2.54.401.124.728.338.985.64 1.476 1.422 18.428 90.165 12.26 104.717-1.322 3.106-3.018 4.802-7.647 5.261-2.894.282-3.886-.411-3.706 1.349.152 1.477-.036 1.2 4.22 2.859 31.217 12.136 31.792 11.106 29.8-4.335-1.618-12.412-2.918-5.691 14.549 3.396 3.352 1.743 6.843 3.175 10.465 4.292 19.028 5.863 38.93-8.887 36.662-31.066-1.765-17.146-13.804-31.767-27.671-38.393-15.471-7.391-26.799-11.561-44.452-6.586"/><path d="M354.71 366.1182c.542-1.81 1.498-3.742 2.868-5.8 26.08-39.293 64.488 8.72 50.415 32.141-7.929 13.18-26.625 10.3-32.781 5.79-4.567-3.169-12.8-15.459-15.854-20.08-5.155-7.783-5.89-7.95-4.648-12.051m-11.824-12.074c-21.176-29.587-21.092-31.866-11.887-35.687 4.683-1.931 5.195-.427 4.906-2.142-.119-.698-.323-1.277-.616-1.738-.059-.09-.88.058-2.458.45-32.692 8.137-34.301 9.558-32.869 11.802.713 1.118 1.088.238 2.238.743 2.014.65 57.235 72.78 58.28 88.566.146 2.279-.233 3.989-1.141 5.124-3.659 4.56-7.477 3.5-6.05 5.731.294.46.509.746.642.856.765.603 29.541-2.455 32.201-4.087 4.713-2.89-.717-9.646-7.147-18.883 68.211 18.044 69.022-53.491 16.389-63.135-3.703-.678-6.918-1.012-9.656-.997-17.863.096-29.543 1.557-42.832 13.397"/><path d="M410.6006 329.6768c6.092-10.753 13.218-19.925 15.755-22.212 4.236-4.11 15.181-1.747 17.778 6.978 3.023 10.218-9.076 19.578-33.533 15.234m-15.236-63.838c-18.418 11.722-31.838 29.837-28.885 51.662 3.797 28.128 34.252 33.369 52.43 29.455 17.828-3.821 32.308-21.063 35.23-37.51 3.569-20.118-7.423-23.853-14.601-20.48 1.624-3.212 9.935-14.809 10.963-15.769.517-.362.578-1.114-.128-1.238-5.58-.993-7.723 3.083-11.984 8.814-11.037 14.843-27.67 41.876-32.67 48.038-25.865-4.592-29.251-38.739-10.5-58.742 1.504-1.599 2.135-1.923 1.288-3.332-.316-.517-.696-.818-1.143-.898"/><path d="M449.8467 196.9893c-3.005 3.945-4.701 5.495-7.955 10.109-11.932 16.916 2.422 18.44 2.666 25.491.576 17.017-43.44 20.463-52.553 16.846-4.084-1.61-3.994-6.245-3.01-10.506.211-.723-1.368-.979-2.086-.955-.471.015-1.163.973-1.156 1.237-5.361 14.519-11.295 23.829-7.858 30.467.833 1.602 1.684 2.341 3.294 1.256 2.461-1.656 57.72-10.515 66.345 1.332 2.251 3.092 2.27 8.101 1.954 9.601.048 1.427 1.936 1.284 2.563-.087 3.984-6.771 8.036-14.842 11.042-22.448 1.368-3.474 2.567-6.968-.07-9.579-3.166-3.129-9.957-3.423-14.399-3.274-16.404.563-8.646 3.596 7.994-13.96 17.927-18.932-11.906-18.528-4.673-34.231-.032-.912-.674-1.347-1.927-1.305Zm-80.7139 27.6289c-15.41-69.862-40.396-136.431-50.587-147.143-5.528-5.81-20.232-9.398-44.115-10.767 12.161 14.454 25.043 37.306 38.644 68.555-18.942-29.823-57.517-40.346-82.645-40.346-93.118 0-130.822 107.909-40.064 181.071 40.973 33.029 101.209 45.059 128.424 40.069 22.682-4.159 52.279-31.66 52.163-50.69-5.25-4.875-22.793-1.076-28.193-6.906-7.74 16.191-25.661 34.973-49.653 34.993-32.176-.02-56.666-7.45-80.317-30.096-23.648-22.645-35.486-49.399-35.508-80.258.088-87.75 127.979-83.697 148.229 7.534l1.329 6.298c-34.169 0-61.535-4.15-82.097-12.451 4.202 12.5 9.231 20.385 15.092 23.658 5.86 3.271 19.35 5.786 40.468 7.543 17.021 1.417 38.273 1.526 68.83 8.936"/></g></svg>
